<svg width="40" height="40" viewBox="0 0 40 40" fill="none" xmlns="http://www.w3.org/2000/svg">
<rect width="40" height="40" fill="#F5F5F5"/>
<g clip-path="url(#clip0_0_1)">
<path d="M15.0422 21.1123C14.8284 21.5101 14.5718 21.9595 14.282 22.4383C14.51 22.7698 14.7666 23.0866 15.0469 23.3959C15.218 23.5801 15.408 23.7643 15.6028 23.9484C15.37 22.9613 15.1847 22.0184 15.0422 21.1123ZM14.6906 16.4936C14.1537 16.9061 13.4363 17.3923 12.6476 17.8195C12.7901 18.7551 12.9802 19.5875 13.2415 20.3462C13.8354 19.7643 14.358 19.175 14.7618 18.6814C14.7048 17.9153 14.6811 17.186 14.6906 16.4936ZM16.0209 9.65009C15.0184 9.03131 13.5218 7.91897 12.2722 6.4604V9.77532C13.441 10.4604 14.6383 10.8877 15.484 11.116C15.6456 10.5856 15.8261 10.0994 16.0209 9.65009ZM17.4272 7.18232C16.7336 6.07735 15.7691 4.33149 15.0279 2.40147L13.1179 3.42541C14.1727 5.51013 15.6788 7.31492 16.6671 8.33886C16.9141 7.9116 17.1707 7.52854 17.4272 7.18232ZM18.3062 6.16575C18.6578 5.81215 18.9999 5.53959 19.3087 5.32597C19.0236 4.12523 18.6816 2.38674 18.4725 0.552486L16.7716 1.4733C17.2277 3.31492 17.8406 5.01657 18.3062 6.16575ZM15.0707 12.7293C14.339 12.7735 13.3365 12.7587 12.2912 12.5746C12.3103 13.5175 12.3388 14.3941 12.3863 15.2118C13.308 15.0497 14.1632 14.7772 14.7999 14.5267C14.8711 13.8858 14.9614 13.2891 15.0707 12.7293ZM23.2047 10.2247C23.3757 10.4457 23.8223 10.2394 23.8223 10.2394L23.4992 9.64272L22.8103 8.92818C22.8103 8.93554 23.0336 10.011 23.2047 10.2247ZM25.4567 16.1694L25.0434 15.6538L25.2809 16.5451L25.9508 16.4641L25.4567 16.1694ZM20.4822 0C20.1972 1.41436 20.1069 3.15285 20.43 4.86188C20.544 4.67772 21.423 3.24862 22.2164 1.90792C22.2164 1.90792 23.2569 3.76427 21.8031 5.67219C21.8031 5.67219 24.4019 8.48619 24.5682 8.60405C24.5682 8.60405 24.4352 9.48066 24.5635 10.2247L26.6065 16.361L25.5755 18.2468L24.0646 16.9282L24.7915 18.7403C24.7915 18.7403 23.9696 18.895 23.7178 18.7109C23.5752 17.5617 22.9196 15.698 22.9196 15.698L21.3802 14.733C21.3802 14.733 20.7103 13.4512 20.7531 11.5948C20.7531 11.5948 19.9881 16.4715 22.0549 17.6943L24.9483 23.4033C27.6232 20.5378 27.7325 16.5525 27.7325 8.61142V3.88214L20.4822 0ZM2.91246 30.3573H1.2353V28.7293H0.579641V30.3573H0V31.175H0.579641V35.1381C0.579641 36.7145 0.812448 37.1639 1.8292 37.1639C2.72241 37.1639 3.07875 36.5378 3.07875 35.2044V34.7035H2.4611V35.2044C2.4611 35.8453 2.4611 36.3462 1.8482 36.3462C1.36833 36.3462 1.2448 36.1768 1.2353 35.4475V31.175H2.91246V30.3573ZM4.3283 33.1271C4.38057 31.5727 4.41858 31.1013 5.60162 31.1013C6.59461 31.1013 6.74189 31.2118 6.77515 33.1271H4.3283ZM6.78465 35.0497V35.3075C6.78465 36.2578 6.49483 36.3462 5.60162 36.3462C4.42808 36.3462 4.3283 36.081 4.3283 33.9447H7.45457V33.267C7.45457 30.7772 7.00796 30.2836 5.60162 30.2836C4.04799 30.2836 3.64889 30.9392 3.64889 33.7311C3.64889 36.2947 3.90545 37.1639 5.60162 37.1639C6.57085 37.1639 7.45457 37.0755 7.45457 35.2928V35.0497H6.78465ZM11.9872 37.0902V32.5009C11.9967 30.4457 11.1937 30.2689 10.101 30.2836C9.13173 30.2689 8.36679 30.3867 8.36679 32.1179V32.2578H9.0462V32.0221C9.0367 31.1013 9.66861 31.1013 10.177 31.1013C10.9134 31.1013 11.3363 31.2118 11.3363 32.4494V33.6943H11.2935C11.2032 33.0829 10.3623 33.0166 9.92992 33.0166C8.85616 33.0166 8.23376 33.2744 8.23376 35.1308C8.23376 36.884 8.91317 37.1713 9.88716 37.1713C10.4335 37.1713 11.0702 37.1492 11.3173 36.3757L11.3363 36.3978V37.0902H11.9872ZM10.0012 36.3462C9.2505 36.3462 8.90842 36.2799 8.90842 34.9982C8.90842 33.9079 9.222 33.8343 10.0012 33.8343C10.8279 33.8343 11.3173 33.8195 11.3173 35.0939C11.3125 36.3241 10.6521 36.3462 10.0012 36.3462ZM13.6263 30.3573H12.9707V37.0902H13.6263V33.0387C13.6263 31.6685 14.0729 31.1013 14.9329 31.1013C15.8736 31.1013 15.8736 31.6759 15.9021 32.5746V37.0902H16.553V32.965C16.553 31.5138 16.9521 31.1087 17.8786 31.1087C18.7243 31.1087 18.8288 31.6243 18.8288 32.7587V37.0902H19.4797V32.6556C19.4797 30.9908 19.0902 30.2836 17.9736 30.2836C17.3892 30.2836 16.7146 30.5046 16.4248 31.3959C16.2727 30.512 15.6076 30.2836 15.0849 30.2836C14.529 30.2836 13.8686 30.5267 13.6358 31.3959H13.6216V30.3573H13.6263ZM20.7721 37.0902H21.8126V27.4696H20.7721V37.0902ZM22.6773 37.0902H23.7178V30.3573H22.6773V37.0902ZM22.6773 28.8398H23.7178V27.4696H22.6773V28.8398ZM28.526 30.3573H27.4854L27.5282 31.3738H27.495C27.2289 30.4899 26.749 30.2836 26.1409 30.2836C24.5255 30.2836 24.478 31.86 24.478 33.9227C24.478 35.8969 24.649 37.1713 26.1409 37.1713C26.6682 37.1713 27.2241 37.0166 27.4474 36.1989H27.4902V40H28.5307V30.3573H28.526ZM26.4449 31.5064C27.3429 31.5064 27.4854 32.0884 27.4854 33.5175C27.4854 35.1234 27.5092 35.9337 26.4449 35.9337C25.4947 35.9337 25.5185 35.0497 25.5185 33.5175C25.5185 31.8306 25.7228 31.5064 26.4449 31.5064ZM33.2914 37.0902V30.3573H32.2509V34.2468C32.2509 35.4107 31.9943 35.9411 31.1914 35.9411C30.5214 35.9411 30.4644 35.5654 30.4644 34.6077V30.3646H29.4239V35.2413C29.4334 36.7145 30.0083 37.1786 30.8825 37.1786C31.4764 37.1786 32.0133 36.9576 32.2556 36.0663H32.2889V37.105H33.2914V37.0902ZM34.1656 37.0902H35.2061V30.3573H34.1656V37.0902ZM34.1656 28.8398H35.2061V27.4696H34.1656V28.8398ZM38.9547 37.0902H39.9952V27.4696H38.9547V31.2486H38.912C38.6887 30.4309 38.1328 30.2762 37.6054 30.2762C36.1183 30.2762 35.9425 31.5433 35.9425 33.5175C35.9425 35.5801 35.9948 37.1565 37.6054 37.1565C38.2183 37.1565 38.6982 36.9503 38.9595 36.0663H38.9928L38.9547 37.0902ZM37.9142 31.5064C38.8122 31.5064 38.9405 32.0884 38.9405 33.5175C38.9405 35.1234 38.9832 35.9337 37.9142 35.9337C36.964 35.9337 36.9878 35.0497 36.9878 33.5175C36.9878 31.8306 37.1968 31.5064 37.9142 31.5064Z" fill="#0E2342"/>
</g>
<defs>
<clipPath id="clip0_0_1">
<rect width="40" height="40" fill="white"/>
</clipPath>
</defs>
</svg>
